# xmcd CD database file
#
# Track frame offsets:
#	150
#	13392
#	35777
#	54945
#	62420
#	71315
#	94067
#	110802
#	127570
#	148667
#	161252
#	183627
#
# Disc length: 2510 seconds
#
# Revision: 0
# Processed by: cddbd v1.4PL0 Copyright (c) Steve Scherf et al.
# Submitted via: CDex 1.40Release
#
DISCID=a009cc0c
DTITLE=Lightnin Hopkins - There's Good Rockin Tonight
DYEAR=1900
DGENRE=Blues
TTITLE0=Trouble in Mind
TTITLE1=I'm Gonna Meet my Baby Somewhere
TTITLE2=Don't Treat that Man the Way you Treat Me
TTITLE3=Long Time Ago
TTITLE4=Bunion Stew
TTITLE5=Get off my Toe
TTITLE6=Gonna Pull a Party
TTITLE7=Bottle it up and Go
TTITLE8=You Treat Po Lightnin Wrong
TTITLE9=When the Saints go Marching In
TTITLE10=Rock me Baby
TTITLE11=Gin Bottle Blues
EXTD=ID3G: 0
EXTT0=
EXTT1=
EXTT2=
EXTT3=
EXTT4=
EXTT5=
EXTT6=
EXTT7=
EXTT8=
EXTT9=
EXTT10=
EXTT11=
PLAYORDER=
